<?xml version="1.0" encoding="UTF-8"?>
<!DOCTYPE svg PUBLIC "-//W3C//DTD SVG 1.1//EN" "http://www.w3.org/Graphics/SVG/1.1/DTD/svg11.dtd">
<svg xmlns="http://www.w3.org/2000/svg" version="1.1" width="512px" height="512px" style="shape-rendering:geometricPrecision; text-rendering:geometricPrecision; image-rendering:optimizeQuality; fill-rule:evenodd; clip-rule:evenodd" xmlns:xlink="http://www.w3.org/1999/xlink">
<g><path style="opacity:0.997" fill="#49adf4" d="M 187.5,35.5 C 194.342,35.0385 201.009,35.8718 207.5,38C 219.871,44.1814 231.204,51.8481 241.5,61C 245.797,63.9819 250.463,66.1486 255.5,67.5C 258.702,66.9007 261.702,65.734 264.5,64C 273.322,57.0895 282.322,50.4228 291.5,44C 317.561,28.4679 337.061,34.3013 350,61.5C 353.404,71.0452 356.404,80.7118 359,90.5C 360.766,95.1983 362.933,99.6983 365.5,104C 376.293,106.276 387.126,106.776 398,105.5C 437.915,103.725 453.248,122.058 444,160.5C 441.531,168.242 438.864,175.908 436,183.5C 434.673,188.12 434.007,192.787 434,197.5C 437.167,200.667 440.333,203.833 443.5,207C 499.5,239.333 499.5,271.667 443.5,304C 439.784,307.379 436.451,311.046 433.5,315C 437.795,330.885 442.295,346.718 447,362.5C 449.401,388.44 437.568,402.606 411.5,405C 401.965,405.795 392.465,405.628 383,404.5C 377.08,405.053 371.246,406.053 365.5,407.5C 363.385,411 361.552,414.667 360,418.5C 356.581,432.758 351.581,446.425 345,459.5C 334.655,474.548 320.821,479.048 303.5,473C 289.684,465.51 276.684,456.843 264.5,447C 261.702,445.266 258.702,444.099 255.5,443.5C 251.132,444.517 247.132,446.35 243.5,449C 236.452,455.049 229.119,460.716 221.5,466C 211.038,472.491 199.704,475.491 187.5,475C 175.185,471.354 166.685,463.52 162,451.5C 158.066,441.363 154.732,431.03 152,420.5C 150.234,415.802 148.067,411.302 145.5,407C 134.905,404.514 124.238,404.014 113.5,405.5C 101.269,406.182 89.6026,404.015 78.5,399C 66.4784,390.621 61.6451,379.121 64,364.5C 66.4519,351.81 70.1186,339.477 75,327.5C 76.1124,322.835 76.779,318.168 77,313.5C 73.8333,310.333 70.6667,307.167 67.5,304C 11.5,271.667 11.5,239.333 67.5,207C 71.2156,203.621 74.5489,199.954 77.5,196C 73.2055,180.115 68.7055,164.282 64,148.5C 60.7987,126.389 69.9653,112.556 91.5,107C 103.506,105.309 115.506,105.142 127.5,106.5C 133.573,105.938 139.573,104.938 145.5,103.5C 151.367,91.7183 155.867,79.3849 159,66.5C 163.25,51.0921 172.75,40.7587 187.5,35.5 Z"/></g>
<g><path style="opacity:1" fill="#fdfefe" d="M 313.5,218.5 C 325.74,216.602 333.073,221.602 335.5,233.5C 335.239,237.45 334.072,241.117 332,244.5C 303.256,266.455 274.423,288.288 245.5,310C 238.687,315.454 231.687,315.787 224.5,311C 209.333,295.833 194.167,280.667 179,265.5C 173.905,255.262 176.071,247.096 185.5,241C 191.097,239.909 196.43,240.576 201.5,243C 212.708,254.542 224.208,265.709 236,276.5C 262.006,257.318 287.839,237.984 313.5,218.5 Z"/></g>
</svg>
